<svg xmlns="http://www.w3.org/2000/svg" xml:space="preserve" id="Camada_1" x="0" y="0" version="1.1" viewBox="0 0 83 23"><style>.st1{fill:#fff}</style><g style="opacity:.63"><path d="M81.2 15.9c-.2-.9-.7-1.8-1.5-2.3l-.6-.3c.2-.1.4-.3.5-.4 1.5-1.3 1.6-3.6.2-5.1l-.3-.3C77.9 5.9 75.7 5 73.4 5c-3.3 0-6.3 1.9-7.8 4.9-.1-.9-.6-1.8-1.4-2.4.9-.7 1.4-1.7 1.4-2.9v-.1c.1-2-1.4-3.7-3.3-3.8-2-.1-3.7 1.4-3.8 3.3v.6q0 1.65 1.2 2.7c-.3.1-.7.4-1 .9 0 .1-.1.2-.1.4-.2-1.3-1.1-2.5-2.3-3.2-.4-2.1-2.3-3.7-4.5-3.6-1.2 0-2.3.5-3.1 1.4-.5.5-.9 1.2-1 1.9-.1-.1-.4-.2-.7-.3-.5-.1-1-.2-1.5-.2h-.1c-.7 0-1.4.2-2.1.5-.7-.4-1.5-.7-2.2-.7-1 0-2.1.4-2.9 1.1q-1.2-.9-2.7-.9c-.8 0-1.6.2-2.2.5-.9-.5-1.9-.7-3-.7h-.4c-2.3 0-4.5 1-6.2 2.7-1.2 1.3-2 2.8-2.3 4.5-.1-.4-.3-.6-.3-.5 0 0 0-.1-.1-.1-.4-.7-.9-1.3-1.6-1.8.2-.1.3-.2.4-.3 1.4-1.4 1.5-3.6.1-5.1-2.2-2.3-5.4-2.6-7.9-2.6-5.7.2-10.3 5-10.3 10.8.1 5.7 4.7 10.3 10.3 10.3 3.7 0 6.8-1.6 8.7-4.6.1-.2.3-.4.4-.7v.1c.2-.4.3-.8.4-1.2.4 1.4 1.2 2.7 2.3 3.7 1.7 1.6 3.8 2.5 6.1 2.5h.2c1.1 0 2.2-.2 3.1-.6q.9.6 2.1.6 1.5 0 2.7-.9c.8.7 1.8 1.1 2.9 1.1h.2c2.4-.1 4.3-2.1 4.3-4.5V14h.7c.5 0 1.1-.1 1.6-.3v4.6c.1 2.3 2 4.2 4.3 4.3h.1c2.4 0 4.4-1.9 4.4-4.3v-4.8c1-.6 1.7-1.5 2.1-2.5 0 .5 0 1-.1 1.4v6.5c-.1 2 1.5 3.6 3.5 3.7s3.6-1.5 3.7-3.5v-1.3c2.1 4.3 7.3 6 11.6 3.9 1.3-.6 2.4-1.6 3.2-2.8.7-1.1.9-2.1.7-3m-61.5.9c-1.6 2.6-4.3 4-7.6 4-5.1 0-9.2-4.1-9.2-9.2S7 2.4 12.1 2.4c2.2 0 5.1.3 6.9 2.3.9.9.9 2.3 0 3.2-.4.3-.8.5-1.3.5-.7 0-1.4-.3-1.9-.6-1.6-.7-2.5-.8-3.2-.8h-.5c-2.5.2-4.4 2.4-4.3 4.9.2 2.3 2 4.1 4.3 4.3 1.1 0 2.7-.3 3.6-1.8h-2.5999999999999996c-1.3 0-2.3-1.1-2.3-2.3 0-1.3 1-2.3 2.3-2.3h3.8c1.2 0 2.3.7 3 1.9.8 1.5.8 3.5-.2 5.1m35.8-4.3v5.4c-.1 1.8-1.5 3.3-3.4 3.3H52c-1.8-.1-3.2-1.5-3.3-3.3v-5.4c-.2-.1-.3-.1-.5-.2-.1-.1-.2-.1-.3-.2l-.2.1c-.5.3-1.1.4-1.7.4h-.5c-.3 0-.7 0-1 .1-.4.1-.4.8-.4 1.2v3.7c.1 1.9-1.4 3.4-3.3 3.5h-.1c-.9 0-1.7-.3-2.3-.9-.2-.2-.4-.4-.5-.6-.6.9-1.7 1.4-2.7 1.4-.7 0-1.4-.3-2-.8-.9.5-2 .8-3.2.8h-.1c-2 0-3.9-.8-5.4-2.2s-2.3-3.3-2.3-5.4.7-4 2.2-5.5c1.4-1.5 3.4-2.3 5.4-2.4h.2c1.2 0 2.1.3 3 .9.6-.5 1.4-.7 2.2-.7 1.1 0 2.1.5 2.7 1.4.6-1 1.7-1.6 2.8-1.6q1.2 0 2.1.9c.8-.4 1.6-.7 2.3-.7h.1c.4 0 .9 0 1.3.1s.8.2 1.2.5l.2.1s.1 0 .1-.1l.6-.3c0-.8.3-1.6.9-2.2.6-.7 1.5-1 2.4-1.1h.1c1.8 0 3.3 1.4 3.4 3.3 1.4.5 2.3 1.8 2.3 3.3.1 1.6-.9 2.8-2.2 3.2m4.4-8.1c0-1.3 1.1-2.3 2.4-2.3 1.2 0 2.2 1 2.3 2.3v.1c0 1.1-.8 2.1-1.9 2.3-.3.1-.4 0-.6 0h-.4c-1.1-.3-1.8-1.3-1.8-2.4m4.6 14c0 1.3-1 2.4-2.3 2.4s-2.4-1-2.4-2.3V10c0-1.3 1.1-2.3 2.4-2.3 1.2 0 2.2 1 2.3 2.3zm15.1-.7c-2.3 3.4-7 4.2-10.3 1.8-3.4-2.3-4.2-7-1.8-10.3 2.3-3.4 7-4.2 10.3-1.8.4.2.7.5 1 .8.1.1.1.2.2.2.9 1 .8 2.4-.1 3.3-.4.4-1 .6-1.6.6-.7 0-1.3-.3-1.7-.8 0 0-.9-.9-2-.9-1.5 0-2.7 1.2-2.7 2.7s1.2 2.7 2.7 2.7c.9 0 1.7-.4 2.2-1.2.8-1 2.2-1.2 3.3-.4.9.9 1.1 2.2.5 3.3M58.6 12.1c0-.1 0 0 0 0" class="st1"/><path d="M35.3 7c-.9 0-1.6.4-1.9 1.2v.1l-.1-.1c-1-.9-1.9-1.3-3.2-1.3h-.2c-3.5.1-6.4 3-6.3 6.5 0 1.7.7 3.3 2 4.5 1.2 1.2 2.9 1.8 4.6 1.8 1.5 0 2.7-.5 3.4-1.3l.1-.1.1.1c.4.8 1 1.2 1.7 1.2 1.1 0 2.1-.9 2.1-2.1V9.1C37.4 7.9 36.5 7 35.3 7m-2.9 6.3c0 1.3-1 2.3-2.3 2.3s-2.3-1-2.3-2.3 1-2.3 2.3-2.3 2.3 1 2.3 2.3M46.5 7.1c-.4 0-.8-.1-1.2-.1-.7 0-1.7.4-2.6 1.2l-.1.1v-.2c-.1-.8-.8-1.4-1.6-1.4-1.1 0-2.1.9-2.1 2.1v8.9c0 1.1 1 2 2.1 2h.1c1.1 0 2-1 2-2.1V14c0-.8.1-2.2 1.5-2.5.5-.1 1-.1 1.4-.1h.2c.3 0 .6-.1.9-.2-.8-1.2-.7-2.6.1-3.8-.3-.1-.5-.2-.7-.3M54.5 7.3h-.3V6.2c0-.5-.2-1.1-.6-1.4q-.6-.6-1.5-.6c-.5 0-1.1.2-1.4.6q-.6.6-.6 1.5v1h-.2c-.4 0-.7.1-1 .3-.2.1-.4.3-.5.4-.3.4-.5.9-.5 1.3 0 .3.1.7.2 1v.2c0 .1.1.1.2.2l.2.2c.1.1.2.2.4.3.3.1.6.2.9.2h.30000000000000004V18c0 1.1.9 1.9 2 2 1.1 0 2.1-.9 2.1-2v-6.6h.3c1.1-.1 1.9-.9 1.9-2 0-.5-.2-1.1-.6-1.5-.3-.4-.8-.6-1.3-.6" class="st1"/></g></svg>