<svg xmlns="http://www.w3.org/2000/svg" xmlns:xlink="http://www.w3.org/1999/xlink" width="29" height="37"><defs><path id="a" d="M0 .303h28.58v31.215H0z"/><path id="c" d="M0 .37h28.547v31.169H0z"/></defs><g fill="none" fill-rule="evenodd"><path fill="#6916A5" d="M1.349 33.062V9.42c0-1.924 1.973-3.163 3.625-2.276l22.006 8.212c.891.479.638 4.987.638 5.885s-.446 1.797-1.336 2.275L4.974 35.337c-1.652.887-3.625-.351-3.625-2.275"/><g transform="translate(0 5.481)"><mask id="b" fill="#fff"><use xlink:href="#a"/></mask><path fill="#211256" d="M3.625 2.681c-.237 0-.473.068-.69.205-.407.256-.64.686-.64 1.18v23.691c0 .494.233.925.64 1.18.41.256.883.273 1.305.045l21.281-11.838a1.37 1.37 0 0 0 .732-1.232c0-.13.005-.327.01-.576.07-2.848-.073-3.918-.198-4.319L4.24 2.841a1.3 1.3 0 0 0-.616-.16M3.62 31.518a3.5 3.5 0 0 1-1.875-.548C.652 30.283 0 29.082 0 27.757V4.066C0 2.74.652 1.54 1.744.853A3.49 3.49 0 0 1 5.225.692l22.066 8.267c1.19.64 1.36 2.67 1.267 6.437-.006.222-.01.401-.01.516 0 1.407-.749 2.684-1.954 3.335L5.313 31.084a3.56 3.56 0 0 1-1.693.434" mask="url(#b)"/></g><path fill="#4CE0AA" d="M1.349 28.266V4.624c0-1.924 1.976-3.163 3.63-2.276L26.313 14.17c1.784.957 1.784 3.592 0 4.55L4.979 30.54c-1.654.888-3.63-.35-3.63-2.274"/><g><mask id="d" fill="#fff"><use xlink:href="#c"/></mask><path fill="#211256" d="M3.628 2.743c-.236 0-.474.068-.693.206a1.36 1.36 0 0 0-.64 1.178v23.656c0 .494.233.923.641 1.178.407.256.883.272 1.304.045l21.281-11.82c.464-.25.732-.707.732-1.23 0-.525-.268-.982-.718-1.224L4.228 2.896a1.27 1.27 0 0 0-.6-.153M3.62 31.539c-.65 0-1.296-.184-1.875-.548C.652 30.305 0 29.106 0 27.783V4.127C0 2.804.652 1.605 1.744.919A3.5 3.5 0 0 1 5.298.797l21.31 11.836c1.19.64 1.94 1.916 1.94 3.322s-.75 2.682-1.954 3.33L5.313 31.105a3.6 3.6 0 0 1-1.693.434" mask="url(#d)"/></g><path fill="#FFF" d="M12.93 19.87c-.56 0-1.094-.336-1.337-.9-.33-.767 0-1.667.739-2.01.696-.323 1.003-.445 1.31-.567.271-.106.543-.215 1.158-.5.734-.344 1.603 0 1.933.767s0 1.667-.738 2.01c-.696.323-1.004.445-1.311.567-.272.107-.543.215-1.157.5-.195.09-.398.133-.597.133M19.514 17.13a1.41 1.41 0 0 1-1.392-1.202L4.797 8.835A1.42 1.42 0 0 1 4.21 6.92a1.405 1.405 0 0 1 1.904-.59l14.716 7.834a1.42 1.42 0 0 1-.085 2.546q-.072.031-.146.072c-.184.095-.438.225-.739.302q-.173.045-.347.045"/></g></svg>