<svg xmlns="http://www.w3.org/2000/svg" width="129" height="37"><g fill="#FFF" fill-rule="nonzero" opacity=".628"><path d="M22.48 10c-5.237.012-9.491 4.059-9.48 9.022.012 4.965 4.284 8.99 9.52 8.978 5.237-.012 9.491-4.057 9.48-9.023-.011-4.962-4.284-8.99-9.52-8.977M13.9.005 13.794 0l-.079.008-.169.007c-.966.039-2.016.404-3.315.92-1.029.4-2.076 1.034-3.2 1.93l-.3.231c-.586.439-1.325 1.152-1.299 1.798v.016c.038.26.152 1.309.178 1.555.029.296-.218.286-.218.286l-1.24-.005c-.234.01-.718.139-.983.538C1.344 10.028.347 12.702.013 15.686l-.013.23c.02.56.661 1.106 1.217 1.083.508-.02 1.211-.527 1.287-1.074 0 0 .77-3.407 1.62-5.246.064-.134.116-.259.166-.369.352-.798.484-.955 1.487-.995l1.542-.06c.904-.04 1.084-.734 1.03-1.07-.004-.023-.313-2.492-.313-2.492-.01-.232-.32-.617 2.936-2.203a13.5 13.5 0 0 1 3.24-1.071c.49-.124.807-.838.787-1.33-.02-.517-.59-1.044-1.1-1.084M39.896 11l-4.748.019c-.913-.011-1.11.95-1.137 1.63L34 12.9l.038 13.518c.02.79.58 1.443 1.33 1.555l.188.028 11.668-.049c1.77-.01 2.807-1.283 2.775-3.777l-.01-4.69c-.035-4.555-3.697-8.519-10.093-8.484M103.441 10.15h-.023c-2.498.005-4.849.927-6.617 2.595-1.773 1.672-2.746 3.889-2.74 6.242.01 4.85 4.215 8.798 9.373 8.798h.024c5.17-.012 9.367-3.979 9.356-8.842-.01-4.85-4.215-8.794-9.373-8.794m-.006 15.267c-3.729 0-6.77-2.887-6.778-6.436-.008-3.555 3.027-6.454 6.766-6.463h.017c3.73 0 6.77 2.884 6.778 6.43.008 3.559-3.027 6.46-6.766 6.47z"/><path d="M103.434 27.813c-5.173 0-9.39-3.96-9.402-8.826-.005-2.361.971-4.585 2.75-6.262 1.774-1.674 4.13-2.599 6.636-2.604h.024c5.172 0 9.39 3.957 9.4 8.821.011 4.88-4.198 8.86-9.384 8.871zm.007-17.635h-.023c-2.491.005-4.834.925-6.599 2.588-1.766 1.667-2.736 3.876-2.731 6.221.011 4.835 4.203 8.77 9.346 8.77h.024c5.155-.012 9.34-3.966 9.328-8.814-.01-4.833-4.203-8.765-9.345-8.765m-.006 15.268c-3.745 0-6.798-2.9-6.806-6.465-.008-3.57 3.04-6.482 6.794-6.491h.017c3.745 0 6.798 2.897 6.806 6.459.008 3.574-3.04 6.488-6.793 6.497zm.005-12.9h-.017c-3.723.01-6.746 2.895-6.738 6.435.008 3.533 3.036 6.408 6.75 6.408h.017c3.723-.009 6.746-2.898 6.738-6.44-.008-3.53-3.036-6.403-6.75-6.403M70.48 11c-.82.002-1.482.628-1.48 1.403l.036 14.2c.002.772.668 1.399 1.487 1.397.818-.002 1.479-.63 1.477-1.402l-.036-14.202c-.002-.774-.667-1.398-1.484-1.396M66.88 17.004l-.364-.662a10.1 10.1 0 0 0-1.706-2.186c-2.961-2.852-7.046-3.024-8.66-3.147-.797-.06-1.92.194-1.92.194-.668.16-1.232.655-1.23 1.37l.033 14.046c.002.763.61 1.383 1.358 1.381s1.354-.624 1.353-1.387l-.028-11.783.011-.005s-.155-.895.837-.896l-.004-.012c4.444.08 6.774 2.53 7.565 3.587l.359.543c.25.425.684.68 1.162.679.749-.002 1.356-.403 1.354-1.167 0-.191-.043-.376-.12-.555M85.605 20.346c3.69-1.31 6.04-5.288 6.354-7.305.046-.305.263-2.053-1.08-2.041l-12.533.039c-.688.028-1.225.65-1.223 1.411.002.781.574 1.416 1.277 1.414l8.584.02a.7.7 0 0 0 .237.014c1.216-.078.645.876.645.876h.004c-.606 1.068-1.93 2.72-4.42 3.649-4.506 1.681-7.155 4.55-7.424 7.39-.013.175-.02.326-.02.412l.003.023-.009.11c-.006.863 1.285 1.642 2.114 1.642l.045-.003.516-.001.002.002 12.237-.037c.623-.109 1.076-.696 1.074-1.396-.002-.772-.596-1.403-1.256-1.4v-.008l-.814.002-.002-.006-9.31.05c-.03-.006-1.122-.018-.699-.817.616-1.02 2.137-2.772 5.698-4.04M128.984 19.53v-.176h-.009c-.054-.915-.3-2.57-1.339-3.765l-.015.017a10 10 0 0 0-1.171-1.45c-2.87-2.853-6.83-3.024-8.392-3.147-.774-.06-1.865.195-1.865.195-.646.159-1.195.652-1.193 1.368l.032 14.047c.002.761.594 1.383 1.319 1.381.724-.002 1.313-.626 1.311-1.387l-.026-11.564.01-.003s-.151-.895.81-.897v-.014c4.307.08 6.564 2.532 7.33 3.588l.234.365c.135.318.283.896.285 1.942l.015 6.365a1.345 1.345 0 0 0 1.344 1.347A1.345 1.345 0 0 0 129 26.389l-.015-6.365s.009-.19 0-.494M17.944 6.826c-.261-.698-.792-.866-1.196-.819l-.16.037c-1.77.463-3.524 1.23-5.281 2.835-.255.232-.41.546-.337 1.005l.068.726s.153.677-.436.724c-.395.032-.943.086-.943.086a1.07 1.07 0 0 0-.905.562C7.598 14.055 7.036 16.052 7 17.87l.002.164c.05.4.339.873 1.083.961.523.062 1.24-.399 1.305-.992 0 0 .315-2.086.822-3.455q.056-.151.098-.277c.206-.59.372-.949 1.093-1.035l.55-.067c1.343-.115 1.258-.784 1.252-1.436l-.016-.725c-.085-.716.194-.827.723-1.165q.114-.07.248-.16c1.22-.811 3.12-1.363 3.12-1.363.565-.203.848-1.003.664-1.493M34.776 34.277l-.656-.24a.5.5 0 0 1-.225-.185.53.53 0 0 1-.079-.305c0-.163.046-.294.139-.404.195-.234.502-.219.676-.005.093.104.143.246.16.427l.012.149h.605v-.167c0-.376-.109-.699-.32-.95q-.317-.371-.77-.373c-.311 0-.577.127-.786.37q-.324.375-.323.942c0 .259.057.5.167.705q.17.31.494.459.195.085.414.161l.188.058a.688.688 0 0 1 .41.64c0 .2-.052.357-.163.485a.54.54 0 0 1-.42.193.49.49 0 0 1-.409-.21.8.8 0 0 1-.158-.49v-.167h-.638v.166c0 .425.126.783.37 1.06q.344.39.843.39c.318 0 .598-.14.83-.412q.354-.414.355-1.015c0-.273-.063-.526-.182-.751a1.24 1.24 0 0 0-.534-.531M41.327 32.224c-.537 0-1.002.235-1.385.697-.386.462-.58 1.033-.58 1.69 0 .658.202 1.228.603 1.696.386.45.846.68 1.371.68.534 0 1.001-.235 1.384-.699.385-.465.582-1.043.582-1.712 0-.651-.199-1.214-.591-1.672-.388-.452-.854-.68-1.384-.68m.009 4.013c-.367 0-.68-.16-.958-.487a1.68 1.68 0 0 1-.408-1.139c0-.452.13-.832.396-1.156.267-.323.581-.48.961-.48s.697.156.967.475c.268.317.399.689.399 1.136 0 .47-.13.854-.399 1.17-.27.325-.583.48-.958.48M50.32 35.52a1.45 1.45 0 0 1-.479.522c-.202.127-.41.195-.619.195-.372 0-.683-.164-.951-.496a1.8 1.8 0 0 1-.395-1.154c0-.434.128-.803.396-1.128.268-.327.573-.483.931-.483q.325 0 .634.18.305.185.473.497l.04.073h.657l-.086-.24c-.13-.355-.36-.659-.69-.903a1.72 1.72 0 0 0-1.038-.36c-.527 0-.984.233-1.36.694-.375.463-.566 1.025-.566 1.67 0 .662.19 1.234.566 1.697.373.467.842.702 1.39.702a1.6 1.6 0 0 0 1.013-.373q.443-.346.698-.912l.114-.25h-.69zM55.047 32.293h1v4.612h-1zM61.143 32.293l-1.611 4.612.663.002.497-1.436h1.448l.507 1.436.663-.002-1.613-4.612zm-.195 2.458.476-1.374.47 1.374zM67.756 32.293h-.608v4.612h2.048v-.721h-1.44zM79.417 35.32h1.879c-.086.236-.222.43-.412.597a1.22 1.22 0 0 1-.809.32c-.381 0-.704-.16-.984-.48-.275-.32-.409-.7-.409-1.17 0-.234.044-.456.134-.677a1.8 1.8 0 0 1 .343-.544 1.22 1.22 0 0 1 1.568-.19c.21.132.362.3.459.518l.037.083h.669l-.079-.232a1.94 1.94 0 0 0-.692-.962 1.75 1.75 0 0 0-1.055-.359c-.51 0-.949.194-1.307.582a2.6 2.6 0 0 0-.493.768 2.7 2.7 0 0 0-.193 1.013c0 .668.204 1.243.608 1.716.39.45.856.683 1.385.683.543 0 1.014-.234 1.401-.69q.563-.667.564-1.529v-.169h-2.613zM87.368 32.293l-1.613 4.612.665.002.496-1.436h1.448l.507 1.436.664-.002-1.613-4.612zm-.196 2.458.478-1.374.47 1.374zM96.898 32.14l-.053.153h-.352l-1.185 3.39-1.183-3.39h-.358l-.047-.138v.138h-.347v4.612h.607v-3.168l1.093 3.168h.471l1.093-3.178v3.178h.608v-4.612h-.347zM101.49 36.905h2.165v-.721H102.1v-1.24h1.507v-.72H102.1v-1.21h1.555v-.72h-2.164zM109.775 34.808a1.23 1.23 0 0 0-.532-.531l-.657-.24a.5.5 0 0 1-.226-.186.53.53 0 0 1-.077-.304c0-.163.045-.294.138-.404.194-.234.502-.219.675-.005a.7.7 0 0 1 .161.427l.012.149h.604v-.167c0-.376-.107-.699-.319-.95-.21-.246-.47-.373-.77-.373-.311 0-.576.127-.788.37q-.322.375-.322.941c0 .26.057.5.168.705.113.207.28.362.493.46.133.057.268.11.416.16l.188.058a.688.688 0 0 1 .409.64c0 .2-.051.358-.162.486a.54.54 0 0 1-.42.192.48.48 0 0 1-.408-.21.8.8 0 0 1-.16-.49v-.166h-.637v.166c0 .424.124.783.37 1.06.226.26.51.39.843.39.317 0 .596-.14.828-.412q.354-.414.356-1.016c0-.271-.062-.525-.183-.75"/></g></svg>